<?xml version="1.0" encoding="UTF-8"?>
<!DOCTYPE svg PUBLIC "-//W3C//DTD SVG 1.1//EN" "http://www.w3.org/Graphics/SVG/1.1/DTD/svg11.dtd">
<!-- Creator: CorelDRAW X8 -->
<svg xmlns="http://www.w3.org/2000/svg" xml:space="preserve" width="48.2912mm" height="31.6771mm" version="1.1" style="shape-rendering:geometricPrecision; text-rendering:geometricPrecision; image-rendering:optimizeQuality; fill-rule:evenodd; clip-rule:evenodd"
viewBox="0 0 15029 9858"
 xmlns:xlink="http://www.w3.org/1999/xlink">
 <defs>
  <style type="text/css">
   <![CDATA[
    .str0 {stroke:#194C92;stroke-width:23.714}
    .fil0 {fill:#194C92}
   ]]>
  </style>
 </defs>
 <g id="Capa_x0020_1">
  <metadata id="CorelCorpID_0Corel-Layer"/>
  <path class="fil0 str0" d="M14438 5506c-58,-7 -147,-195 -318,-320 -123,-90 -262,-158 -448,-195 -322,-65 -827,4 -1025,194 -113,109 -36,254 -474,482 -71,37 -150,70 -171,151 -25,98 32,180 129,170 74,-7 167,-57 248,-76 238,-54 217,128 533,128 237,0 701,-179 903,-179 324,0 332,466 166,649 -74,81 -122,84 -256,58 -198,-38 -390,-68 -586,-99 -276,-43 -434,-70 -705,-70 -491,0 -893,458 -1130,828 -93,145 -178,282 -178,497 0,93 48,92 125,115 179,55 301,173 435,281 95,76 180,122 314,161 220,65 355,67 569,67 196,0 346,-63 508,-118 211,-70 327,37 391,195 60,146 67,345 137,485 142,285 405,-29 577,678 22,93 42,174 151,161 95,-12 101,-108 106,-209 17,-387 72,-792 72,-1183l6 -65 67 -11c29,57 83,855 97,1029 9,97 -3,247 68,298 20,-34 22,-97 22,-140l0 -4267c28,-526 -806,-852 -1157,-778l0 0c-161,12 -330,54 -454,113 -60,28 -196,109 -219,154 867,36 889,-266 1326,35 125,86 504,823 171,781zm-8896 -5478c-44,16 -190,227 -203,298 -20,113 178,275 248,238 55,-29 165,-233 194,-305 59,-152 -223,-236 -239,-231zm3011 -15c-69,39 -234,247 -239,290 -10,74 196,269 266,255 74,-14 198,-201 232,-298 59,-169 -78,-172 -169,-204 -43,-15 -57,-29 -90,-43zm-322 2801c87,-20 312,-124 357,-256 72,-209 68,-891 33,-1143 -13,-98 -78,-428 -131,-478 -143,47 -125,242 -141,405 -16,171 -32,338 -47,506 -12,130 -49,639 -77,742 -19,70 -42,157 6,224zm-3032 14c69,-20 113,-67 158,-107 116,-102 137,-56 182,-86 84,-61 113,-749 113,-901 0,-161 -12,-312 -38,-465 -34,-194 -84,-227 -173,-335l-25 40c-122,328 -148,1017 -171,1357 -11,166 -36,340 -46,497zm7654 -79c125,68 145,-95 172,-206 29,-120 55,-238 77,-358 87,-471 34,-446 57,-814 37,-624 499,-495 678,-621 61,-43 164,-168 140,-291 -73,-51 -454,26 -577,31 -145,6 -138,-42 -145,-178 -5,-86 -6,-236 -111,-214 -41,75 4,208 -89,399 -178,366 -535,249 -536,438 -1,180 289,98 344,121 165,74 117,676 98,832 -16,130 -121,787 -108,861zm-8514 -775c-60,-84 -167,-552 -211,-693 -76,-243 -124,-342 -262,-528 -7,-10 -13,-20 -21,-30 -11,-13 3,0 -15,-16 -15,-13 -4,-5 -20,-14 -112,243 -17,332 55,509 141,344 240,620 350,978 26,87 50,168 77,256 29,95 61,164 182,164 105,0 139,-54 167,-139l192 -732c42,-165 242,-880 242,-991 0,-51 -8,-90 -30,-126 -70,29 -177,186 -231,279 -169,293 -224,697 -417,1005 -9,15 -15,26 -24,38l-34 40zm6819 578c89,-55 156,-270 156,-382 0,-248 -40,-419 126,-632 59,-76 276,-239 438,-231 172,268 80,1020 285,1197 41,36 108,77 185,57 87,-22 51,-118 51,-194 0,-169 -77,-621 -101,-829 -29,-253 -15,-664 -268,-664 -196,0 -515,234 -629,202 -93,-25 -152,-216 -187,-233 -46,-21 -58,37 -93,107 -139,278 -149,592 -104,905 13,89 119,643 141,697zm-2846 766c-152,28 -357,179 -441,267 -110,115 -200,252 -259,447 -102,340 131,205 279,378 73,86 26,316 431,260 136,-19 165,-36 240,-113 122,-126 343,-475 428,-631 252,-458 -383,-334 -524,-413 -92,-52 -7,-221 -154,-195zm-7122 -2029c-48,-76 -16,-328 -455,-223 -97,23 -184,58 -275,89 -40,14 -94,36 -141,22 -57,-18 -58,-92 -59,-95 -8,-22 0,-8 -10,-22 -67,35 -60,89 -74,174 -13,74 -26,144 -40,220 -27,145 -52,287 -78,431 -27,157 -56,293 -43,461 8,104 55,324 92,414 27,67 135,54 177,15 39,-37 44,-141 54,-206 22,-147 43,-294 64,-442 22,-150 43,-296 66,-444 27,-174 -7,-320 221,-284 127,19 253,121 288,220l73 436c19,85 40,398 176,293 68,-53 45,-373 40,-479 -9,-173 74,-259 209,-300 342,-103 307,260 322,414 7,78 15,158 23,237 15,155 27,318 47,471 112,-88 176,-449 201,-570 24,-109 4,-228 -2,-345 -25,-503 6,-237 -110,-668 -54,-203 -122,-96 -480,67 -68,31 -213,118 -286,114zm13323 -419c-351,70 -655,403 -747,732 -118,419 159,833 498,908 494,109 663,-322 730,-716 38,-223 27,-452 -26,-663 -47,-187 -220,-307 -455,-261zm-421 760c0,828 670,316 670,21 0,-174 -175,-348 -326,-372 -195,-30 -344,169 -344,351zm-6886 740c32,-91 -18,-489 17,-619 49,-185 330,-227 427,-152 148,111 73,903 176,1102 92,-79 181,-430 200,-592 29,-234 8,-487 -41,-710 -25,-108 -52,-206 -90,-306 -56,-149 -90,-137 -222,-62 -85,48 -461,272 -531,265 -69,-101 -28,-358 -533,-218 -70,19 -253,106 -313,70 -36,-22 -51,-88 -67,-142 -27,-95 -34,-76 -71,-137l-83 637c-63,463 -189,791 -16,1238 37,96 173,75 198,-47 40,-201 100,-707 136,-944 32,-215 58,-454 325,-322 216,106 225,187 261,457 14,102 31,209 47,316 17,114 48,211 180,166zm-4173 -1500c-318,63 -668,454 -769,740 -84,236 14,417 119,576 94,142 202,316 395,361 234,54 456,-71 546,-188 113,-146 149,-354 195,-562 43,-197 80,-482 -6,-670 -70,-154 -244,-303 -480,-257zm-180 414c-367,115 -282,1021 207,749 125,-69 327,-242 240,-464 -52,-131 -247,-347 -447,-285zm6961 -743c-320,55 -812,580 -859,785 -23,101 25,176 46,271 67,310 -51,706 327,991 245,185 847,137 1044,-30 137,-117 201,-446 87,-467 -57,-10 -161,64 -228,87 -203,70 -385,44 -595,17 -112,-14 -190,5 -238,-92 -54,-109 -38,-364 143,-461 139,-74 287,-162 461,-203 347,-81 456,87 568,-2 24,-19 100,-167 122,-210 83,-159 -76,-274 -203,-391 -169,-155 -428,-337 -675,-295zm-370 683c329,35 567,124 735,-116 34,-47 105,-161 54,-224 -81,-99 -338,-61 -484,12 -101,50 -291,208 -305,328zm-1535 4334c-72,-27 -34,-79 -114,-108 -106,110 -111,289 -128,467 -50,539 -110,1091 -138,1632 -24,466 -21,890 -145,1329 -23,80 -52,151 -73,231 -24,91 -54,491 -9,562 29,22 116,-51 208,-94 386,-178 264,-181 401,-378 13,-19 19,-28 30,-43l41 -42c105,97 116,254 185,321 116,20 135,-67 156,-166 24,-109 78,-754 93,-904 41,-402 87,-800 133,-1195 9,-78 35,-230 14,-298 -24,-77 -91,-91 -124,-207 -94,-337 102,-658 -242,-1087 -63,-78 -27,-209 -131,-202 -117,7 -96,116 -157,182zm758 -55c73,26 686,-64 841,-83 356,-46 303,-74 230,448 -8,57 -39,167 -15,218 35,73 139,19 203,46 56,44 24,130 15,197 -11,76 -19,142 -35,215 -33,152 -91,227 -133,355 -85,258 -90,580 -112,866 -23,299 -49,604 -71,903 -22,297 -58,621 -61,918 140,-72 64,-244 165,-336 45,-41 105,-57 147,-103 34,-37 70,-98 89,-159 23,-71 24,-147 25,-227 2,-217 223,11 264,-477 77,-918 171,-1835 252,-2754 33,-368 130,-325 561,-433 273,-68 528,-144 789,-209 154,-38 687,-156 781,-226 -50,-90 -210,-142 -44,-438 24,-44 61,-88 78,-136 -353,-105 -491,-55 -887,-19 -299,28 -589,66 -882,104 -178,23 -330,61 -300,-165 41,-319 160,-403 -65,-787 -62,-105 -127,-197 -191,-300 -35,77 -82,387 -98,484 -86,495 -38,996 -540,1205 -146,61 -304,74 -463,117 -93,26 -586,171 -645,227 -47,43 -97,120 -76,215 20,91 120,70 186,108 98,55 -20,140 -8,226zm-3435 2126c-24,-33 -149,-433 -174,-510 -152,-477 -345,-1135 -525,-1562 -142,-339 -312,-643 -508,-883 -34,-42 -121,-152 -204,-139 -148,23 -226,347 -256,442 -110,344 20,246 188,416 67,66 92,116 133,219 211,536 379,943 617,1471 144,320 302,631 445,944 123,268 185,571 156,878 -18,198 -63,218 13,281 36,-20 271,-376 303,-423 31,-47 69,-114 113,-133 118,-9 44,420 135,532 80,-84 125,-447 216,-577 40,127 -33,371 33,509 28,-23 43,-83 57,-119 86,-213 205,-761 271,-1006 236,-863 382,-1384 690,-2226 134,-364 268,-706 384,-1079 34,-109 50,-194 -20,-285 -120,-159 -156,-49 -321,57 -83,52 -259,177 -316,234 -104,105 -116,237 -265,462 -404,610 -577,1393 -854,2073 -53,129 -201,382 -311,424zm-3880 -3704c-29,72 -52,122 -82,209 -23,68 -53,164 -96,207 -149,-71 -152,-302 -309,85 -151,371 -64,325 -112,571 -19,99 -51,184 -89,266 -148,315 -559,672 -536,848 128,-52 154,-152 238,-244 20,-22 97,-115 113,-126 67,-46 126,0 116,93 -17,157 -169,733 -145,839 66,8 123,-35 162,15 31,46 -16,118 -19,174 -4,71 -1,145 -5,217 -30,568 187,386 170,697l-52 830c-24,378 -98,333 -445,438 -92,28 -290,70 -242,184 69,155 460,19 607,94 -115,108 -345,152 -519,221 -42,17 -47,20 -43,71 56,47 156,20 248,10 187,-20 453,-87 504,35 28,66 -2,209 99,185 48,-11 141,-93 182,-121 194,-131 402,-204 629,-273l1611 -496c71,-22 179,-50 236,-73 12,-225 39,-153 234,-215 74,-24 164,-51 207,-125 3,-5 15,-32 16,-37l-3 -45c-63,-25 -764,104 -884,125 -296,52 -567,113 -847,189 -217,58 -679,145 -899,57 -81,-33 -73,-97 -66,-193l49 -726c8,-150 10,-340 29,-481 41,-311 296,-366 569,-469 125,-48 251,-96 373,-146 394,-163 638,-322 961,-596 46,-39 94,-78 142,-118 40,-33 96,-76 133,-117 -47,-9 -130,-13 -168,-28 -135,-56 132,-179 -437,-129 -228,20 -465,60 -675,123 -327,97 -654,257 -913,468 -44,36 -63,80 -127,84 -54,-34 -44,-43 -32,-108 8,-47 13,-98 19,-148l104 -891c25,-221 41,-373 179,-486 111,-91 177,-57 420,-244 276,-211 592,-279 933,-385 243,-77 779,-182 890,-442 -101,-49 -222,-1 -335,21l-974 209c-214,48 -428,98 -646,144 -113,23 -240,63 -301,-27 -68,-98 -43,-218 -172,-220zm11708 2883c-183,29 -335,96 -452,186 -98,74 -253,204 -298,334 -97,278 487,469 722,524 178,42 372,98 524,-14 116,-86 176,-255 177,-457 1,-193 15,-426 -122,-513 -119,-76 -391,-85 -551,-60z"/>
 </g>
</svg>
